<svg width="21" height="28" viewBox="0 0 21 28" fill="none" xmlns="http://www.w3.org/2000/svg">
<path fill-rule="evenodd" clip-rule="evenodd" d="M2.75279 2.40175C1.23247 2.40175 0 3.63422 0 5.15454V14.8519C0 20.8368 6.314 25.6344 9.61954 26.9393C10.0737 27.1185 10.5723 27.1185 11.0264 26.9393C14.3319 25.6344 20.6459 20.8368 20.6459 14.8519V5.15454C20.6459 3.63422 19.4135 2.40175 17.8931 2.40175H14.5773C13.6553 2.40175 12.4118 1.65811 11.5074 0.820145C10.5646 -0.0533588 10.3905 -0.3383 9.42305 0.507735C8.38337 1.41691 6.90886 2.40175 6.06865 2.40175H2.75279Z" fill="url(#paint0_linear_196_1072)"/>
<path fill-rule="evenodd" clip-rule="evenodd" d="M4.49577 5.07434C3.32558 5.07434 2.37695 6.0085 2.37695 7.16084V14.511C2.37695 19.0474 7.23682 22.6838 9.78108 23.6728C10.1306 23.8087 10.5144 23.8087 10.8639 23.6728C13.4082 22.6838 18.2681 19.0474 18.2681 14.511V7.16084C18.2681 6.0085 17.3194 5.07434 16.1493 5.07434H13.597C12.8874 5.07434 11.9303 4.51069 11.2341 3.87554C10.5085 3.21346 10.3745 2.99749 9.62985 3.63875C8.8296 4.32786 7.69468 5.07434 7.04798 5.07434H4.49577Z" fill="#C4FFEA"/>
<defs>
<linearGradient id="paint0_linear_196_1072" x1="18.4422" y1="37.3352" x2="-2.10911" y2="5.50683" gradientUnits="userSpaceOnUse">
<stop stop-color="#34CA95"/>
<stop offset="1" stop-color="#009149"/>
</linearGradient>
</defs>
</svg>
